External Loads File
version=1
nRows=31
nColumns=13
Range=5.000000e-03-10 seconds
endheader
time 	forceRightX 	forceRightY 	forceRightZ 	pointRightX 	pointRightY 	pointRightZ 	forceLeftX 	forceLeftY 	forceLeftZ 	pointLeftX 	pointLeftY 	pointLeftZ 		
0.005000 -0.055134 45.257368 -0.000000 0.277580 0.445612 -0.104142 26.554232 122.004671 -0.000000 0.064085 0.198948 -0.340858
0.010000 -1.236490 44.898985 -0.000000 0.277720 0.445484 -0.104106 26.971914 122.913416 -0.000000 0.064010 0.199084 -0.340867
0.015000 -2.384075 44.547218 -0.000000 0.277861 0.445388 -0.104067 27.369483 123.799521 -0.000000 0.063941 0.199191 -0.340852
0.020000 -3.435740 44.235122 -0.000000 0.277966 0.445290 -0.104017 27.737222 124.644575 -0.000000 0.063869 0.199268 -0.340849
0.025000 -4.381519 43.997800 -0.000000 0.278086 0.445300 -0.103879 27.928835 125.428021 -0.000000 0.063491 0.198472 -0.340438
0.030000 -5.104660 43.871381 -0.000000 0.278166 0.445238 -0.103854 28.151879 126.031836 -0.000000 0.063385 0.198388 -0.340326
0.035000 -5.617260 43.863711 -0.000000 0.278236 0.445163 -0.103874 28.315999 126.422837 -0.000000 0.063316 0.198428 -0.340272
0.040000 -5.921975 43.971059 -0.000000 0.278271 0.445103 -0.103929 28.401043 126.594330 -0.000000 0.063245 0.198486 -0.340256
0.045000 -6.031248 44.180989 -0.000000 0.278294 0.445052 -0.103950 28.410801 126.576834 -0.000000 0.063196 0.198490 -0.340236
0.050000 -5.971414 44.467351 -0.000000 0.278312 0.445001 -0.104001 28.390336 126.420203 -0.000000 0.063171 0.198502 -0.340258
0.055000 -5.802407 44.785027 -0.000000 0.278314 0.444975 -0.103998 28.359798 126.185294 -0.000000 0.063145 0.198548 -0.340227
0.060000 -5.606740 45.073263 -0.000000 0.278330 0.444962 -0.103982 28.314732 125.929992 -0.000000 0.063129 0.198559 -0.340214
0.065000 -5.462536 45.269558 -0.000000 0.278338 0.444961 -0.103957 28.257874 125.701580 -0.000000 0.063136 0.198554 -0.340201
0.070000 -5.412386 45.337782 -0.000000 0.278340 0.444960 -0.103918 28.213758 125.534801 -0.000000 0.063132 0.198512 -0.340186
0.075000 -5.453838 45.284756 -0.000000 0.278338 0.444996 -0.103901 28.210740 125.452497 -0.000000 0.063140 0.198526 -0.340165
0.080000 -5.565944 45.144966 -0.000000 0.278313 0.445025 -0.103880 28.234389 125.467354 -0.000000 0.063155 0.198474 -0.340161
0.085000 -5.696992 44.961374 -0.000000 0.278273 0.445033 -0.103892 28.318801 125.561804 -0.000000 0.063152 0.198451 -0.340156
0.090000 -5.826085 44.772591 -0.000000 0.278202 0.445062 -0.103901 28.406994 125.731961 -0.000000 0.063178 0.198408 -0.340129
0.095000 -5.905703 44.627982 -0.000000 0.278126 0.445101 -0.103911 28.513799 125.958135 -0.000000 0.063197 0.198360 -0.340143
0.100000 -5.904292 44.577059 -0.000000 0.278049 0.445137 -0.103930 28.627345 126.222738 -0.000000 0.063204 0.198239 -0.340132
0.105000 -5.795927 44.651634 -0.000000 0.277971 0.445176 -0.103941 28.760265 126.489165 -0.000000 0.063247 0.198187 -0.340133
0.110000 -5.578148 44.858509 -0.000000 0.277904 0.445248 -0.103930 28.878511 126.714485 -0.000000 0.063274 0.198127 -0.340121
0.115000 -5.259024 45.184947 -0.000000 0.277830 0.445321 -0.103907 28.935946 126.852770 -0.000000 0.063322 0.198055 -0.340103
0.120000 -4.861963 45.591542 -0.000000 0.277778 0.445427 -0.103889 28.916915 126.865789 -0.000000 0.063372 0.197978 -0.340110
0.125000 -4.440848 46.008716 -0.000000 0.277716 0.445527 -0.103887 28.818925 126.745537 -0.000000 0.063429 0.197890 -0.340107
0.130000 -4.051363 46.361112 -0.000000 0.277637 0.445606 -0.103896 28.676677 126.517666 -0.000000 0.063480 0.197821 -0.340123
0.135000 -3.744377 46.593643 -0.000000 0.277571 0.445697 -0.103910 28.515991 126.244535 -0.000000 0.063542 0.197727 -0.340115
0.140000 -3.545213 46.681023 -0.000000 0.277494 0.445795 -0.103947 28.386280 125.993356 -0.000000 0.063603 0.197649 -0.340123
0.145000 -3.461194 46.629225 -0.000000 0.277432 0.445886 -0.103984 28.314033 125.817293 -0.000000 0.063664 0.197544 -0.340130
0.150000 -3.482435 46.474494 -0.000000 0.277351 0.445984 -0.103994 28.277974 125.744773 -0.000000 0.063764 0.197425 -0.340171
0.155000 -3.554094 46.268240 -0.000000 0.277274 0.446090 -0.104004 28.307306 125.758824 -0.000000 0.063827 0.197339 -0.340174
